<svg xmlns="http://www.w3.org/2000/svg" viewBox="0 0 30 30" width="30px" height="30px">
    <path d="M25.565,9.785c-0.123,0.077-2.454,1.531-2.454,4.352c0,3.382,2.946,4.516,3.069,4.561c-0.01,0.034-0.479,1.649-1.59,3.275 c-0.96,1.405-1.957,2.805-3.535,2.834c-1.549,0.028-2.048-0.914-3.819-0.914c-1.77,0-2.325,0.885-3.805,0.943 c-1.549,0.057-2.709-1.517-3.674-2.919c-1.973-2.867-3.483-8.094-1.458-11.603c1.006-1.742,2.802-2.844,4.75-2.873 c1.478-0.023,2.871,1.001,3.774,1.001c0.903,0,2.583-1.236,4.34-1.058c0.736,0.031,2.802,0.297,4.123,2.231 C25.688,9.664,25.603,9.761,25.565,9.785z M18.42,4.608c0.75-0.911,1.255-2.178,1.116-3.447c-1.09,0.044-2.411,0.725-3.193,1.636 c-0.701,0.803-1.314,2.1-1.151,3.342C16.32,6.183,17.67,5.52,18.42,4.608z"/>
</svg>